<?xml version="1.0" encoding="UTF-8"?>
<!DOCTYPE svg PUBLIC "-//W3C//DTD SVG 1.1//EN" "http://www.w3.org/Graphics/SVG/1.1/DTD/svg11.dtd">
<!-- Creator: CorelDRAW 2019 (64-Bit) -->
<svg xmlns="http://www.w3.org/2000/svg" xml:space="preserve" width="234.708mm" height="83.7698mm" version="1.1" style="shape-rendering:geometricPrecision; text-rendering:geometricPrecision; image-rendering:optimizeQuality; fill-rule:evenodd; clip-rule:evenodd"
viewBox="0 0 23582.69 8416.92"
 xmlns:xlink="http://www.w3.org/1999/xlink">
 <defs>
  <style type="text/css">
   <![CDATA[
    .fil0 {fill:#A18046;fill-rule:nonzero}
   ]]>
  </style>
 </defs>
 <g id="Слой_x0020_1">
  <metadata id="CorelCorpID_0Corel-Layer"/>
  <g id="_2127136199696">
   <path class="fil0" d="M6605.06 2474.77c-21.45,-48.31 -44.17,-96.35 -69.88,-142.86 -416.55,-753.07 -1068.54,-1315.99 -2267.52,-1558.32 -299.35,-60.5 -533.92,-200.51 -729.24,-308.51 -428.27,-236.82 -630.55,-465.08 -630.55,-465.08 104.16,1601.93 1362.19,2103.43 1362.19,2103.43 628.61,266.64 1027.83,-7.17 1418.85,582.67 168.15,301.51 276.82,640.66 310.24,1001.71 7.25,78.35 11.14,157.68 11.14,237.92 0,444.61 -113.91,862.52 -313.98,1226.38 -433.42,788.2 -1271.57,1322.34 -2234.74,1322.34 -1407.4,0 -2548.73,-1140.96 -2548.73,-2548.72l0 -2341.94c-566.86,616.39 -912.84,1438.85 -912.84,2341.94 0,1911.72 1549.85,3461.56 3461.57,3461.56 1027.81,0 1951.13,-447.93 2584.87,-1159.39l0 1345.21c0,466 377.79,843.79 843.79,843.79 11.21,0 22.04,-0.36 32.9,-0.72l0 -4490.46c0,-518.12 -114.01,-1009.61 -318.08,-1450.96z"/>
   <path class="fil0" d="M3461.57 5635.73c233.01,0 454.92,-46.83 657.25,-131.18 209.85,-87.51 398.64,-215.38 556.38,-374.24l-222.28 -196.16 -414.73 -366c-94.56,88.9 -209.64,156 -337.33,193.7 -75.86,22.39 -156.16,34.42 -239.29,34.42 -465.99,0 -843.42,-377.43 -843.42,-843.42l83.56 0 1620.29 0 0 -843.43 -1724.45 0 0 -2536.81c-298.26,77.02 -580.98,192.33 -842.35,340.92l0 3122.1c56.39,892.96 798.96,1600.09 1706.38,1600.09z"/>
   <polygon class="fil0" points="8866.73,3421.8 8329.18,3421.8 8329.18,3131.27 9723.89,3131.27 9723.89,3421.8 9186.35,3421.8 9186.35,4826.19 8866.73,4826.19 "/>
   <polygon class="fil0" points="9917.49,3131.26 10234.7,3131.26 10234.7,4826.2 9917.49,4826.2 "/>
   <polygon class="fil0" points="10902.7,3131.26 10902.7,4530.8 11774.38,4530.8 11774.38,4826.2 10583.08,4826.2 10583.08,3131.26 "/>
   <polygon class="fil0" points="11822.01,3901.23 12715.49,3901.23 12715.49,4172.44 11822.01,4172.44 "/>
   <path class="fil0" d="M13295.32 3983.56c4.84,278.45 188.87,576.29 556.91,576.29 382.58,0 566.6,-322.05 554.49,-612.62 -12.12,-273.62 -154.97,-569.02 -554.49,-569.02 -399.54,0 -561.76,319.62 -556.91,605.34zm1426.17 -26.62c2.45,193.7 -48.41,394.65 -157.38,552.07l200.98 198.53 -225.19 225.18 -205.82 -203.38c-128.34,82.32 -290.57,125.92 -481.86,125.92 -602.91,0 -869.25,-438.28 -871.7,-878.95 -2.42,-443.11 276.05,-886.23 871.7,-886.23 595.65,0 862,431 869.25,866.87z"/>
   <path class="fil0" d="M15795.73 3487.18l-314.77 721.56 629.55 0 -314.77 -721.56zm443.11 1019.39l-886.22 0 -145.27 319.64 -346.25 0 760.3 -1694.94 348.67 0 760.31 1694.94 -348.68 0 -142.85 -319.64z"/>
   <polygon class="fil0" points="16867.58,3131.26 18170.28,3131.26 18170.28,3281.36 17291.32,4523.51 18170.28,4523.51 18170.28,4826.2 16845.79,4826.2 16845.79,4642.17 17705.38,3431.49 16867.58,3431.49 "/>
   <polygon class="fil0" points="19129.05,3831.01 19579.45,3131.27 19964.44,3131.27 19964.44,3145.76 19288.88,4126.42 19288.88,4826.19 18969.25,4826.19 18969.25,4126.42 18317.9,3145.76 18317.9,3131.27 18698.05,3131.27 "/>
   <polygon class="fil0" points="21233.62,3128.82 21553.22,3128.82 21553.22,4826.2 21354.68,4826.2 21354.68,4828.61 20463.62,3683.32 20463.62,4826.2 20144,4826.2 20144,3131.26 20403.07,3131.26 21233.62,4182.12 "/>
   <path class="fil0" d="M22648.07 3487.18l-314.77 721.56 629.54 0 -314.76 -721.56zm443.11 1019.39l-886.23 0 -145.26 319.64 -346.24 0 760.29 -1694.94 348.67 0 760.29 1694.94 -348.66 0 -142.85 -319.64z"/>
  </g>
 </g>
</svg>
