<svg width="510" height="115" viewBox="0 0 510 115" fill="none" xmlns="http://www.w3.org/2000/svg">
<path d="M114.793 10.3413H104.51V104.42H114.793V10.3413Z" fill="#1928AB"/>
<path d="M10.3045 10.3743H0V104.432H10.3045V10.3743Z" fill="#1928AB"/>
<path d="M39.4749 2.02645C38.1789 0.730419 36.4792 0.0292715 34.7158 0.0505179H10.3037V10.3975H30.594C32.4849 10.4187 34.3333 11.2049 35.6506 12.5221L46.6988 23.5066L53.8588 16.3465L39.4749 2.02645Z" fill="#1928AB"/>
<path d="M84.178 10.347H104.511V0H80.0987C78.314 0.0212464 76.5718 0.743629 75.3182 1.99717L20.9487 56.3454C20.3325 56.9616 20.29 57.8964 20.9061 58.4913L46.7631 84.2844L53.7956 77.2519L33.9727 57.3865L57.3437 34.1005L59.1072 35.8002L80.8423 57.4078L35.6937 102.344C34.3126 103.725 32.4643 104.49 30.5733 104.49L10.2829 104.447V114.816H34.6526C36.501 114.837 38.222 114.136 39.518 112.84L57.3863 95.0139L75.2757 112.84C76.5717 114.136 78.2077 114.816 80.0349 114.816H104.447L104.49 104.447L84.1142 104.49C82.2232 104.49 80.3536 103.704 78.9938 102.344L64.5463 87.7476L93.8663 58.4913C94.44 57.9177 94.4187 56.9403 93.8238 56.3454L64.5038 27.0679L79.1213 12.5141C80.4811 11.1331 82.287 10.3683 84.1354 10.3683L84.178 10.347Z" fill="#1928AB"/>
<path d="M148.236 32.8486V39.0526H160.113V72.1969H167.337V39.0526H179.15V32.8486H148.215H148.236Z" fill="black"/>
<path d="M184.865 32.8489V72.1972H192.067V32.8489H184.865Z" fill="black"/>
<path d="M208.11 65.6909V32.8652H200.908V72.2136H227.933V65.6909H208.11Z" fill="black"/>
<path d="M234.541 49.5139V55.5904H260.143V49.5139H234.541Z" fill="black"/>
<path d="M301.614 72.2576L300.977 71.6628C305.056 70.3455 308.265 68.0084 310.623 64.6302C312.981 61.1883 314.15 57.1302 314.15 52.4985C314.214 48.5892 313.364 45.0835 311.643 41.9816C309.901 38.8796 307.479 36.4787 304.377 34.7578C302.868 33.9292 301.275 33.313 299.575 32.8881C297.769 32.4419 295.857 32.2295 293.817 32.2507C291.82 32.2507 289.95 32.4632 288.187 32.8881C286.445 33.313 284.809 33.9504 283.258 34.779C280.177 36.4788 277.776 38.8583 276.076 41.9391C274.377 45.0198 273.527 48.5255 273.527 52.4773C273.527 55.4518 274.015 58.1926 275.014 60.6996C276.013 63.2067 277.394 65.3313 279.157 67.0948C280.921 68.8582 283.066 70.218 285.573 71.2166C286.678 71.6415 287.826 71.9815 289.015 72.2364C290.545 72.5551 292.139 72.7039 293.796 72.7039H294.051L303.229 82.5409H312.748L301.614 72.2152V72.2576ZM284.575 62.4206C282.217 59.8923 281.027 56.5778 281.027 52.4985C281.027 48.4192 282.217 45.1473 284.575 42.5977C286.933 40.0269 290.014 38.7521 293.775 38.7521C297.535 38.7521 300.616 40.0481 303.017 42.5977C305.418 45.1685 306.607 48.4617 306.607 52.4985C306.607 56.5353 305.418 59.8923 303.059 62.4206C300.701 64.9489 297.599 66.2237 293.775 66.2237C289.95 66.2237 286.933 64.9489 284.575 62.4206Z" fill="black"/>
<path d="M338.922 32.9104V32.8467H331.337V32.9104L315.891 72.195H323.71L326.684 64.1214H343.787L346.783 72.195H354.857L338.922 32.9104ZM328.809 58.4698L335.225 41.0903L341.684 58.4698H328.809Z" fill="black"/>
<path d="M368.988 65.7898L387.876 34.4514V32.8154H358.407V39.1043H377.253L357.26 72.1638H358.195H388.407V65.7898H368.988Z" fill="black"/>
<path d="M420.491 32.8154L420.449 32.8792L410.123 48.9202L399.861 32.8792L399.818 32.8154H391.532L391.575 32.8792L406.553 55.1879V72.1638H413.713V55.1879L428.713 32.8792L428.756 32.8154H420.491Z" fill="black"/>
<path d="M458.969 32.8154V60.4995L440.229 32.8792L440.187 32.8154H432.772V72.1638H439.974V44.4159L458.756 72.1638H466.171V32.8154H458.969Z" fill="black"/>
<path d="M509.659 71.9347L493.831 32.8626V32.7988H486.246V32.8626L470.8 72.1472H478.618L481.593 64.0735H498.675L501.671 72.1472H509.744L509.659 71.9134V71.9347ZM483.696 58.4432L490.113 41.0637L496.571 58.4432H483.696Z" fill="black"/>
</svg>
