<svg width="31" height="23" viewBox="0 0 31 23" fill="none" xmlns="http://www.w3.org/2000/svg">
<path opacity="0.9" fill-rule="evenodd" clip-rule="evenodd" d="M28.6047 0C26.6425 0.36003 24.7677 1.09403 23.0827 2.162C21.6168 3.10305 20.3217 4.2866 19.2527 5.662C18.2596 6.94955 17.4917 8.39601 16.9817 9.94C16.4853 11.4231 16.2297 12.9761 16.2247 14.54C16.1515 15.6591 16.3205 16.7808 16.7202 17.8287C17.1199 18.8765 17.7408 19.8259 18.5407 20.612C20.0304 21.9982 21.9451 22.8398 23.9737 23C24.6788 22.8959 25.3497 22.6281 25.9327 22.218C26.654 21.7499 27.2871 21.1582 27.8027 20.47C28.3473 19.7426 28.741 18.9137 28.9607 18.032C29.1968 17.096 29.1968 16.116 28.9607 15.18C27.8953 14.7997 26.8543 14.3542 25.8437 13.846C24.8589 13.3915 23.9319 12.8207 23.0827 12.146C22.8963 11.1399 22.9397 10.1047 23.2094 9.11772C23.4792 8.13072 23.9685 7.21741 24.6407 6.446C26.1146 4.88742 27.9734 3.74503 30.0297 3.134L28.6047 0ZM12.3957 0C10.4334 0.36003 8.55877 1.09403 6.87371 2.162C5.40831 3.10333 4.11353 4.28684 3.0447 5.662C2.05089 6.9491 1.28297 8.39568 0.773701 9.94C0.276783 11.4229 0.021178 12.976 0.016682 14.54C-0.0566208 15.659 0.112235 16.7807 0.511738 17.8286C0.911241 18.8764 1.532 19.8258 2.33168 20.612C3.8214 21.9982 5.73615 22.8398 7.7647 23C8.4699 22.8962 9.14088 22.6284 9.72368 22.218C10.4452 21.7502 11.0784 21.1584 11.5937 20.47C12.1387 19.7429 12.5325 18.9139 12.7517 18.032C12.9888 17.0961 12.9888 16.1159 12.7517 15.18C11.6863 14.7997 10.6453 14.3542 9.63469 13.846C8.64998 13.3912 7.7231 12.8205 6.87371 12.146C6.68726 11.1398 6.73064 10.1045 7.0006 9.11751C7.27056 8.13047 7.76012 7.21721 8.4327 6.446C9.90634 4.88757 11.7648 3.74519 13.8207 3.134L12.3957 0Z" fill="#B69465"/>
</svg>
